# xmcd
#
# Track frame offsets:
#	150
#	15644
#	31497
#	48914
#	69165
#	88017
#	106948
#	125722
#	143244
#	166553
#	184487
#	202640
#
# Disc length: 2964 seconds
#
# Revision: 2
# Processed by: cddbd v1.5.2PL0 Copyright (c) Steve Scherf et al.
# Submitted via: EasyCDDAExtractor 15.3.0.1
#
DISCID=970b920c
DTITLE=Alvaro Torres - Lo Nuevo Y Lo Mejor
DYEAR=2007
DGENRE=Latin
TTITLE0=Espacios Vacios
TTITLE1=Cuando Un Amor Termina
TTITLE2=Viva El Viejo
TTITLE3=Me Equivoque
TTITLE4=Acariciame
TTITLE5=Nada Se Compara Contigo
TTITLE6=Hazme Olvidarla
TTITLE7=De Punta A Punta
TTITLE8=Reencuentro
TTITLE9=Si Estuvieras Conmigo
TTITLE10=Te Olvidare
TTITLE11=Nada Se Compara Contigo (Version Piano)
EXTD=
EXTT0=
EXTT1=
EXTT2=
EXTT3=
EXTT4=
EXTT5=
EXTT6=
EXTT7=
EXTT8=
EXTT9=
EXTT10=
EXTT11=
PLAYORDER=
